<mxfile host="drawio-plugin" modified="2021-11-04T18:17:16.236Z" agent="5.0 (X11; Linux x86_64) AppleWebKit/537.36 (KHTML, like Gecko) Chrome/87.0.4280.141 Safari/537.36" etag="AXQpS3rGpQLuDTAaucDv" version="14.7.4" type="embed"><diagram id="7M2RcAfaeCEcHT__mrJF" name="payment form"><mxGraphModel dx="1453" dy="720" grid="1" gridSize="10" guides="1" tooltips="1" connect="1" arrows="1" fold="1" page="1" pageScale="1" pageWidth="850" pageHeight="1100" math="0" shadow="0"><root><mxCell id="0"/><mxCell id="1" parent="0"/><mxCell id="40" value="" style="rounded=0;whiteSpace=wrap;html=1;fontSize=14;" parent="1" vertex="1"><mxGeometry x="360" y="320" width="120" height="200" as="geometry"/></mxCell><mxCell id="39" value="" style="rounded=0;whiteSpace=wrap;html=1;fontSize=14;" parent="1" vertex="1"><mxGeometry x="40" y="200" width="120" height="200" as="geometry"/></mxCell><mxCell id="2" value="" style="aspect=fixed;labelBackgroundColor=none;whiteSpace=wrap;" parent="1" vertex="1"><mxGeometry x="40" y="40" width="750" height="750" as="geometry"/></mxCell><mxCell id="3" value="logo" style="ellipse;whiteSpace=wrap;html=1;aspect=fixed;align=center;" parent="1" vertex="1"><mxGeometry x="350" y="50" width="60" height="60" as="geometry"/></mxCell><mxCell id="6" value="" style="rounded=0;whiteSpace=wrap;html=1;dashed=1;dashPattern=1 1;" parent="1" vertex="1"><mxGeometry x="170" y="120" width="435" height="580" as="geometry"/></mxCell><mxCell id="9" value="Please enter the card details" style="text;html=1;strokeColor=none;fillColor=none;align=center;verticalAlign=middle;whiteSpace=wrap;rounded=0;fontStyle=1;fontSize=14;" parent="1" vertex="1"><mxGeometry x="170" y="140" width="240" height="40" as="geometry"/></mxCell><mxCell id="10" value="Card number" style="text;html=1;strokeColor=none;fillColor=none;align=center;verticalAlign=middle;whiteSpace=wrap;rounded=0;fontStyle=0;fontSize=14;" parent="1" vertex="1"><mxGeometry x="120" y="180" width="240" height="40" as="geometry"/></mxCell><mxCell id="11" value="" style="rounded=1;whiteSpace=wrap;html=1;fontSize=14;fillColor=#fff2cc;strokeColor=#d6b656;" parent="1" vertex="1"><mxGeometry x="200" y="220" width="330" height="40" as="geometry"/></mxCell><mxCell id="12" value="Cardholder name" style="text;html=1;strokeColor=none;fillColor=none;align=center;verticalAlign=middle;whiteSpace=wrap;rounded=0;fontStyle=0;fontSize=14;" parent="1" vertex="1"><mxGeometry x="130" y="280" width="240" height="40" as="geometry"/></mxCell><mxCell id="13" value="" style="rounded=1;whiteSpace=wrap;html=1;fontSize=14;fillColor=#fff2cc;strokeColor=#d6b656;" parent="1" vertex="1"><mxGeometry x="200" y="320" width="330" height="40" as="geometry"/></mxCell><mxCell id="14" value="Card expiration month" style="text;html=1;strokeColor=none;fillColor=none;align=center;verticalAlign=middle;whiteSpace=wrap;rounded=0;fontStyle=0;fontSize=14;" parent="1" vertex="1"><mxGeometry x="140" y="380" width="240" height="40" as="geometry"/></mxCell><mxCell id="16" value="" style="rounded=1;whiteSpace=wrap;html=1;fontSize=14;fillColor=#fff2cc;strokeColor=#d6b656;" parent="1" vertex="1"><mxGeometry x="190" y="420" width="140" height="30" as="geometry"/></mxCell><mxCell id="17" value="" style="rounded=1;whiteSpace=wrap;html=1;fontSize=14;fillColor=#fff2cc;strokeColor=#d6b656;" parent="1" vertex="1"><mxGeometry x="420" y="420" width="140" height="30" as="geometry"/></mxCell><mxCell id="18" value="CVV" style="text;html=1;strokeColor=none;fillColor=none;align=center;verticalAlign=middle;whiteSpace=wrap;rounded=0;fontStyle=0;fontSize=14;" parent="1" vertex="1"><mxGeometry x="90" y="460" width="240" height="40" as="geometry"/></mxCell><mxCell id="19" value="" style="rounded=1;whiteSpace=wrap;html=1;fontSize=14;fillColor=#fff2cc;strokeColor=#d6b656;" parent="1" vertex="1"><mxGeometry x="190" y="500" width="140" height="30" as="geometry"/></mxCell><mxCell id="20" value="Secure payment" style="text;html=1;strokeColor=none;fillColor=none;align=center;verticalAlign=middle;whiteSpace=wrap;rounded=0;fontSize=14;" parent="1" vertex="1"><mxGeometry x="170" y="570" width="140" height="20" as="geometry"/></mxCell><mxCell id="24" value="" style="rounded=1;whiteSpace=wrap;html=1;fontSize=14;fillColor=#e1d5e7;strokeColor=#9673a6;" parent="1" vertex="1"><mxGeometry x="317.5" y="630" width="140" height="40" as="geometry"/></mxCell><mxCell id="36" value="" style="rounded=0;whiteSpace=wrap;html=1;fontSize=14;" parent="1" vertex="1"><mxGeometry x="655" y="400" width="90" height="140" as="geometry"/></mxCell><mxCell id="37" value=".......&lt;br&gt;2025&lt;br&gt;2024&lt;br&gt;2023&lt;br&gt;2022&lt;br&gt;2021" style="text;html=1;strokeColor=none;fillColor=none;align=center;verticalAlign=middle;whiteSpace=wrap;rounded=0;fontSize=14;labelBackgroundColor=#FFFFFF;" parent="1" vertex="1"><mxGeometry x="650" y="390" width="100" height="150" as="geometry"/></mxCell><mxCell id="41" value="" style="rounded=0;whiteSpace=wrap;html=1;fontSize=14;" parent="1" vertex="1"><mxGeometry x="42.5" y="410" width="120" height="190" as="geometry"/></mxCell><mxCell id="43" value="12&lt;br&gt;11&lt;br&gt;10&lt;br&gt;09&lt;br&gt;08&lt;br&gt;07&lt;br&gt;06&lt;br&gt;05&lt;br&gt;04&lt;br&gt;03&lt;br&gt;02&lt;br&gt;01" style="text;html=1;strokeColor=none;fillColor=none;align=center;verticalAlign=middle;whiteSpace=wrap;rounded=0;fontSize=14;" parent="1" vertex="1"><mxGeometry x="50" y="410" width="100" height="190" as="geometry"/></mxCell><mxCell id="44" style="edgeStyle=orthogonalEdgeStyle;rounded=0;orthogonalLoop=1;jettySize=auto;html=1;exitX=0.5;exitY=1;exitDx=0;exitDy=0;fontSize=14;" parent="1" source="37" target="37" edge="1"><mxGeometry relative="1" as="geometry"/></mxCell><mxCell id="47" value="" style="line;strokeWidth=2;html=1;dashed=1;dashPattern=1 1;fontSize=14;" parent="1" vertex="1"><mxGeometry x="140" y="430" width="50" height="10" as="geometry"/></mxCell><mxCell id="48" style="edgeStyle=orthogonalEdgeStyle;rounded=0;orthogonalLoop=1;jettySize=auto;html=1;exitX=0.25;exitY=0.5;exitDx=0;exitDy=0;exitPerimeter=0;entryX=0;entryY=0.5;entryDx=0;entryDy=0;entryPerimeter=0;fontSize=14;" parent="1" source="47" target="47" edge="1"><mxGeometry relative="1" as="geometry"/></mxCell><mxCell id="66" value="" style="line;strokeWidth=2;html=1;dashed=1;dashPattern=1 1;fontSize=14;" parent="1" vertex="1"><mxGeometry x="570" y="425" width="80" height="20" as="geometry"/></mxCell><mxCell id="68" style="edgeStyle=orthogonalEdgeStyle;rounded=0;orthogonalLoop=1;jettySize=auto;html=1;exitX=0.75;exitY=0.5;exitDx=0;exitDy=0;exitPerimeter=0;entryX=1;entryY=0.5;entryDx=0;entryDy=0;entryPerimeter=0;fontSize=14;" parent="1" source="66" target="66" edge="1"><mxGeometry relative="1" as="geometry"/></mxCell><mxCell id="69" value="Amount" style="text;html=1;strokeColor=none;fillColor=none;align=center;verticalAlign=middle;whiteSpace=wrap;rounded=0;fontStyle=0;fontSize=14;" parent="1" vertex="1"><mxGeometry x="330" y="460" width="240" height="40" as="geometry"/></mxCell><mxCell id="70" value="" style="rounded=1;whiteSpace=wrap;html=1;fontSize=14;fillColor=#fff2cc;strokeColor=#d6b656;" parent="1" vertex="1"><mxGeometry x="420" y="500" width="140" height="30" as="geometry"/></mxCell><mxCell id="72" value="RON" style="text;html=1;strokeColor=none;fillColor=none;align=center;verticalAlign=middle;whiteSpace=wrap;rounded=0;dashed=1;dashPattern=1 1;fontSize=14;" parent="1" vertex="1"><mxGeometry x="560" y="505" width="40" height="20" as="geometry"/></mxCell><mxCell id="75" value="Pay using this card" style="text;html=1;strokeColor=none;fillColor=none;align=center;verticalAlign=middle;whiteSpace=wrap;rounded=0;dashed=1;dashPattern=1 1;fontSize=14;fontStyle=1" parent="1" vertex="1"><mxGeometry x="317.5" y="640" width="140" height="20" as="geometry"/></mxCell><mxCell id="79" value="Card expiration year" style="text;html=1;strokeColor=none;fillColor=none;align=center;verticalAlign=middle;whiteSpace=wrap;rounded=0;fontStyle=0;fontSize=14;" parent="1" vertex="1"><mxGeometry x="365" y="380" width="240" height="40" as="geometry"/></mxCell></root></mxGraphModel></diagram></mxfile>